PERFORMER "Armin van Buuren"
TITLE "A State of Trance Episode 554 (2012-03-29) [TRAUSE]"
FILE "Armin_van_Buuren_presents_-_A_State_of_Trance_Episode_554.mp3" MP3
  TRACK 01 AUDIO
    PERFORMER "A State Of Trance"
    TITLE "Intro"
    INDEX 01 00:00:00
  TRACK 02 AUDIO
    PERFORMER "tyDi feat. Jennifer Rene & Tenishia"
    TITLE "Greater Heights (Tom Fall Remix)"
    INDEX 01 01:04:47
  TRACK 03 AUDIO
    PERFORMER "Cathy Burton & Omnia"
    TITLE "Hearts Connected [FUTURE FAVOURITE]"
    INDEX 01 07:30:36
  TRACK 04 AUDIO
    PERFORMER "Nomination & BBSound feat. Anthya"
    TITLE "Save My Tears (Timur Shafiev pres. S00perstar Remix)"
    INDEX 01 11:56:24
  TRACK 05 AUDIO
    PERFORMER "BT & Arty feat. Nadia Ali"
    TITLE "Must Be The Love"
    INDEX 01 16:24:01
  TRACK 06 AUDIO
    PERFORMER "Alexander Popov"
    TITLE "When The Sun (Eximinds Remix)"
    INDEX 01 22:18:11
  TRACK 07 AUDIO
    PERFORMER "Dash Berlin feat. Sarah Howells"
    TITLE "Go It Alone (Club Mix)"
    INDEX 01 28:57:68
  TRACK 08 AUDIO
    PERFORMER "Richard Durand & Bobina"
    TITLE "Last Train To Moscow"
    INDEX 01 33:48:32
  TRACK 09 AUDIO
    PERFORMER "Gaia"
    TITLE "J'ai Envie De Toi (Protoculture Remix)"
    INDEX 01 38:55:14
  TRACK 10 AUDIO
    PERFORMER "Wezz Devall"
    TITLE "Kill Of The Year"
    INDEX 01 44:41:48
  TRACK 11 AUDIO
    PERFORMER "Mike Koglin feat. LCK"
    TITLE "Varana (Chris Schweizer Rockin Remix)"
    INDEX 01 49:32:13
  TRACK 12 AUDIO
    PERFORMER "Fabio XB & Wach vs. Roman Sokolovsky"
    TITLE "Eternal (Andrew Rayel Remix)"
    INDEX 01 53:52:01
  TRACK 13 AUDIO
    PERFORMER "Markus Schulz & Dennis Sheperd"
    TITLE "Go!"
    INDEX 01 60:03:55
  TRACK 14 AUDIO
    PERFORMER "Stoneface & Terminal feat. Ellie Lawson"
    TITLE "Breaking Through"
    INDEX 01 62:56:72
  TRACK 15 AUDIO
    PERFORMER "Second Way"
    TITLE "Around The Earth"
    INDEX 01 68:50:48
  TRACK 16 AUDIO
    PERFORMER "Setrise vs. Kay Wilder"
    TITLE "Cannon"
    INDEX 01 75:07:60
  TRACK 17 AUDIO
    PERFORMER "A.R.D.I."
    TITLE "Premonition [TUNE OF THE WEEK]"
    INDEX 01 79:18:44
  TRACK 18 AUDIO
    PERFORMER "Sneijder & Neal Scarborough"
    TITLE "Your Way"
    INDEX 01 84:03:27
  TRACK 19 AUDIO
    PERFORMER "Solarstone feat. Clare Stagg"
    TITLE "The Spell (Pure Mix)"
    INDEX 01 88:17:35
  TRACK 20 AUDIO
    PERFORMER "Will Atkinson"
    TITLE "Hold On Tight"
    INDEX 01 95:06:64
  TRACK 21 AUDIO
    PERFORMER "Simon Patterson"
    TITLE "We'll See (Paul Webster Remix)"
    INDEX 01 100:51:15
  TRACK 22 AUDIO
    PERFORMER "Aly & Fila feat. Jwaydan"
    TITLE "Coming Home"
    INDEX 01 105:57:22
  TRACK 23 AUDIO
    PERFORMER "Bossanova"
    TITLE "Stone Cold [ASOT RADIO CLASSIC]"
    INDEX 01 113:14:51
  TRACK 24 AUDIO
    PERFORMER "A State Of Trance"
    TITLE "Outro"
    INDEX 01 119:19:03
